# xmcd
#
# Track frame offsets: 
#        150
#        12507
#        27052
#        39342
#        50400
#        64282
#        76040
#        90267
#        100155
#        112145
#        124440
#        136595
#        149127
#        165117
#        177980
#        190687
#        203705
#        215892
#        229717
#        241342
#        252215
#        263490
#        276225
#        292117
#        304077
#        314820
#
# Disc length: 4388 seconds
#
# Revision: 5
# Processed by: cddbd v1.5.2PL0 Copyright (c) Steve Scherf et al.
# Submitted via: ExactAudioCopy v1.0b1
#
DISCID=7611221a
DTITLE=Various Artist - Chess Blues (1954-1960)
DYEAR=1992
DGENRE=Blues
TTITLE0=Little Walter - Mellow Down Easy (mono)
TTITLE1=Muddy Waters - My Eyes (Keep Me In Trouble) (mono)
TTITLE2=Little Walter - My Babe (mono)
TTITLE3=Billy Boy Arnold - You Got To Love Me (mono)
TTITLE4=Willie Dixon - Walking The Blues (mono)
TTITLE5=Sonny Boy Williamson II - Don't Start Me To Talkin' (mono)
TTITLE6=Howlin' Wolf - Smokestack Lightnin' (mono)
TTITLE7=Willie Dixon - 29 Ways (mono)
TTITLE8=Paul Gayton and Myrtle Jones - Right To Love You (mono)
TTITLE9=Jimmy Witherspoon - Ain't Nobody's Business (mono)
TTITLE10=Otis Spann - I'm Leaving You (mono)
TTITLE11=Howlin' Wolf - Break Of Day (mono)
TTITLE12=Floyd Dixon - Please Don't Go (mono)
TTITLE13=Sonny Boy Williamson II - Keep It To Yourself (mono)
TTITLE14=Jimmy Rogers - Walking By Myself (mono)
TTITLE15=Muddy Waters - Got My Mojo Working (mono)
TTITLE16=Sonny Boy Williamson II - Fattening Frogs for Snakes (alt) (m
TTITLE16=ono)
TTITLE17=Lafayette Leake - Slow Leake (mono)
TTITLE18=Howlin' Wolf - Sitting On Top Of The World (mono)
TTITLE19=J.B. Lenoir - She Don't Know (mono)
TTITLE20=Sonny Boy Williamson II - Your Funeral And My Trial (mono)
TTITLE21=Little Walter - Key To The Highway (mono)
TTITLE22=Muddy Waters - Double Trouble (alt) (mono)
TTITLE23=Eddie Boyd - Come On Home (mono)
TTITLE24=Sonny Boy Williamson - The Goat (inst) (mono)
TTITLE25=Otis Rush - So Many Roads, So Many Trains (mono)
EXTD=YEAR: 0
EXTT0=
EXTT1=
EXTT2=
EXTT3=
EXTT4=
EXTT5=
EXTT6=
EXTT7=
EXTT8=
EXTT9=
EXTT10=
EXTT11=
EXTT12=
EXTT13=
EXTT14=
EXTT15=
EXTT16=
EXTT17=
EXTT18=
EXTT19=
EXTT20=
EXTT21=
EXTT22=
EXTT23=
EXTT24=
EXTT25=
PLAYORDER=
